<svg width="33" height="32" viewBox="0 0 33 32" fill="none" xmlns="http://www.w3.org/2000/svg">
<path d="M3.54053 15.9997C3.54053 10.029 3.54053 7.04234 5.39519 5.18767C7.24986 3.33301 10.2352 3.33301 16.2072 3.33301C22.1779 3.33301 25.1645 3.33301 27.0192 5.18767C28.8739 7.04234 28.8739 10.0277 28.8739 15.9997C28.8739 21.9703 28.8739 24.957 27.0192 26.8117C25.1645 28.6663 22.1792 28.6663 16.2072 28.6663C10.2365 28.6663 7.24986 28.6663 5.39519 26.8117C3.54053 24.957 3.54053 21.9717 3.54053 15.9997Z" stroke="white" stroke-width="1.5" stroke-linecap="round" stroke-linejoin="round"/>
<path d="M23.551 8.66602H23.5377M22.207 15.9993C22.207 17.5906 21.5749 19.1168 20.4497 20.242C19.3245 21.3672 17.7983 21.9993 16.207 21.9993C14.6157 21.9993 13.0896 21.3672 11.9644 20.242C10.8392 19.1168 10.207 17.5906 10.207 15.9993C10.207 14.408 10.8392 12.8819 11.9644 11.7567C13.0896 10.6315 14.6157 9.99935 16.207 9.99935C17.7983 9.99935 19.3245 10.6315 20.4497 11.7567C21.5749 12.8819 22.207 14.408 22.207 15.9993Z" stroke="white" stroke-width="1.5" stroke-linecap="round" stroke-linejoin="round"/>
</svg>
