<svg width="33" height="32" viewBox="0 0 33 32" fill="none" xmlns="http://www.w3.org/2000/svg">
<path d="M25.6071 6.54707C24.3847 5.31231 22.9287 4.3333 21.3239 3.66714C19.7192 3.00098 17.9979 2.66102 16.2604 2.66707C8.98043 2.66707 3.0471 8.6004 3.0471 15.8804C3.0471 18.2137 3.66043 20.4804 4.8071 22.4804L2.94043 29.3337L9.94043 27.4937C11.8738 28.5471 14.0471 29.1071 16.2604 29.1071C23.5404 29.1071 29.4738 23.1737 29.4738 15.8937C29.4738 12.3604 28.1004 9.0404 25.6071 6.54707ZM16.2604 26.8671C14.2871 26.8671 12.3538 26.3337 10.6604 25.3337L10.2604 25.0937L6.10043 26.1871L7.2071 22.1337L6.94043 21.7204C5.84409 19.9697 5.26195 17.9461 5.26043 15.8804C5.26043 9.82707 10.1938 4.89374 16.2471 4.89374C19.1804 4.89374 21.9404 6.04041 24.0071 8.12041C25.0304 9.13902 25.8414 10.3506 26.393 11.685C26.9445 13.0193 27.2258 14.4499 27.2204 15.8937C27.2471 21.9471 22.3138 26.8671 16.2604 26.8671ZM22.2871 18.6537C21.9538 18.4937 20.3271 17.6937 20.0338 17.5737C19.7271 17.4671 19.5138 17.4137 19.2871 17.7337C19.0604 18.0671 18.4338 18.8137 18.2471 19.0271C18.0604 19.2537 17.8604 19.2804 17.5271 19.1071C17.1938 18.9471 16.1271 18.5871 14.8738 17.4671C13.8871 16.5871 13.2338 15.5071 13.0338 15.1737C12.8471 14.8404 13.0071 14.6671 13.1804 14.4937C13.3271 14.3471 13.5138 14.1071 13.6738 13.9204C13.8338 13.7337 13.9004 13.5871 14.0071 13.3737C14.1138 13.1471 14.0604 12.9604 13.9804 12.8004C13.9004 12.6404 13.2338 11.0137 12.9671 10.3471C12.7004 9.70707 12.4204 9.78707 12.2204 9.77374H11.5804C11.3538 9.77374 11.0071 9.85374 10.7004 10.1871C10.4071 10.5204 9.55376 11.3204 9.55376 12.9471C9.55376 14.5737 10.7404 16.1471 10.9004 16.3604C11.0604 16.5871 13.2338 19.9204 16.5404 21.3471C17.3271 21.6937 17.9404 21.8937 18.4204 22.0404C19.2071 22.2937 19.9271 22.2537 20.5004 22.1737C21.1404 22.0804 22.4604 21.3737 22.7271 20.6004C23.0071 19.8271 23.0071 19.1737 22.9138 19.0271C22.8204 18.8804 22.6204 18.8137 22.2871 18.6537Z" fill="white"/>
</svg>
